<svg xmlns="http://www.w3.org/2000/svg" viewBox="0 0 208.53 263.62"><defs><style>.cls-1{fill:#d6bf72;}.cls-1,.cls-2,.cls-3,.cls-4{stroke:#222;stroke-linecap:round;stroke-linejoin:round;stroke-width:5px;}.cls-2{fill:#549b87;}.cls-3{fill:#f9e1b7;}.cls-4{fill:none;}</style></defs><title>debs-icon-1</title><g id="Layer_2" data-name="Layer 2"><g id="Layer_3" data-name="Layer 3"><path class="cls-1" d="M186.4,237.1s32.67-17.63,13.72-53.25-11.73-60.89-8.12-69,17.9-42.67-5.6-72.2C164.9,15.62,107-7,94.44,6.54S63.69-3.39,39.4,28.2,40.83,114,36.1,127.48s-28.19,47.94-22.78,61S-3.52,208.56,23.4,231.18,186.4,237.1,186.4,237.1Z"/><path class="cls-2" d="M165.52,217.07s34.41,1.51,39.54,44.05H2.5c3.54-46.45,41.8-48,41.8-48"/><path class="cls-2" d="M95.71,231.18S35.3,215.34,30.84,202.34c-2.32-6.75,21.43-12.18,50-13.9l47.3.85c14.35,1.15,27.35,3,37.36,5.76,50.57,13.79-45.52,36.13-45.52,36.13"/><path class="cls-3" d="M162.83,100.06C121.94,11.29,90,42.63,90,42.63c-.71,1.32-12.32,34.14-45.13,46.94l-.49.19s-6-8.16-10.95-3.05c-11.11,11.48-3,30.14,11.95,35.06"/><polyline class="cls-3" points="128.09 173.3 128.09 210.79 104.44 220.85 80.79 210.79 80.79 173.3"/><path class="cls-3" d="M164.32,112.53l-.8,6.27c0,35.92-35.68,65-58.24,65S47,154.72,47,118.8L43.68,90.57c26.66-15.4,47.83-47.94,47.83-47.94S122,11.29,161,100.06A40.16,40.16,0,0,1,164.32,112.53Z"/><path class="cls-4" d="M94.83,94.14a24.66,24.66,0,1,1-49,5.92C44.22,86.54,54.46,79.22,68,77.58S93.19,80.62,94.83,94.14Z"/><path class="cls-4" d="M113.87,94.14a24.66,24.66,0,0,0,49,5.92c1.64-13.52-8.6-20.85-22.12-22.48S115.5,80.62,113.87,94.14Z"/><path class="cls-4" d="M94.83,94.14s7.49-9.51,19,0"/></g></g></svg>